<svg width="50" height="29" viewBox="0 0 50 29" fill="none" xmlns="http://www.w3.org/2000/svg">
<g clip-path="url(#clip0_356_22)">
<path d="M25.24 28.6C20.3867 28.6 16.1467 27.4 12.52 25C8.89333 22.6 6.06667 19.24 4.04 14.92C2.01333 10.6 1 5.56 1 -0.199999C1 -5.96 2.01333 -11 4.04 -15.32C6.06667 -19.64 8.89333 -23 12.52 -25.4C16.1467 -27.8 20.3867 -29 25.24 -29C30.0933 -29 34.3333 -27.8 37.96 -25.4C41.5867 -23 44.4133 -19.64 46.44 -15.32C48.4667 -11 49.48 -5.96 49.48 -0.199999C49.48 5.56 48.4667 10.6 46.44 14.92C44.4133 19.24 41.5867 22.6 37.96 25C34.3333 27.4 30.0933 28.6 25.24 28.6ZM25.24 17.72C27.6933 17.72 29.8 17 31.56 15.56C33.3733 14.0667 34.76 11.9867 35.72 9.32C36.7333 6.6 37.24 3.42667 37.24 -0.199999C37.24 -3.88 36.7333 -7.05333 35.72 -9.72C34.76 -12.3867 33.3733 -14.44 31.56 -15.88C29.8 -17.3733 27.6933 -18.12 25.24 -18.12C22.7867 -18.12 20.6533 -17.3733 18.84 -15.88C17.08 -14.44 15.6933 -12.3867 14.68 -9.72C13.72 -7.05333 13.24 -3.88 13.24 -0.199999C13.24 3.42667 13.72 6.6 14.68 9.32C15.6933 11.9867 17.08 14.0667 18.84 15.56C20.6533 17 22.7867 17.72 25.24 17.72Z" fill="#FE5C83"/>
</g>
<defs>
<clipPath id="clip0_356_22">
<rect width="50" height="29" fill="white"/>
</clipPath>
</defs>
</svg>
