<svg width="50" height="29" viewBox="0 0 50 29" fill="none" xmlns="http://www.w3.org/2000/svg">
<g clip-path="url(#clip0_356_21)">
<path d="M25.24 57.6C20.3867 57.6 16.1467 56.4 12.52 54C8.89333 51.6 6.06667 48.24 4.04 43.92C2.01333 39.6 1 34.56 1 28.8C1 23.04 2.01333 18 4.04 13.68C6.06667 9.36 8.89333 6 12.52 3.6C16.1467 1.2 20.3867 0 25.24 0C30.0933 0 34.3333 1.2 37.96 3.6C41.5867 6 44.4133 9.36 46.44 13.68C48.4667 18 49.48 23.04 49.48 28.8C49.48 34.56 48.4667 39.6 46.44 43.92C44.4133 48.24 41.5867 51.6 37.96 54C34.3333 56.4 30.0933 57.6 25.24 57.6ZM25.24 46.72C27.6933 46.72 29.8 46 31.56 44.56C33.3733 43.0667 34.76 40.9867 35.72 38.32C36.7333 35.6 37.24 32.4267 37.24 28.8C37.24 25.12 36.7333 21.9467 35.72 19.28C34.76 16.6133 33.3733 14.56 31.56 13.12C29.8 11.6267 27.6933 10.88 25.24 10.88C22.7867 10.88 20.6533 11.6267 18.84 13.12C17.08 14.56 15.6933 16.6133 14.68 19.28C13.72 21.9467 13.24 25.12 13.24 28.8C13.24 32.4267 13.72 35.6 14.68 38.32C15.6933 40.9867 17.08 43.0667 18.84 44.56C20.6533 46 22.7867 46.72 25.24 46.72Z" fill="#FE5C83"/>
</g>
<defs>
<clipPath id="clip0_356_21">
<rect width="50" height="29" fill="white"/>
</clipPath>
</defs>
</svg>
