<svg width="42" height="28" viewBox="0 0 42 28" fill="none" xmlns="http://www.w3.org/2000/svg">
<g clip-path="url(#clip0_359_15)">
<path d="M1.8365 28V19.3361L25.4715 -3.74121C26.3764 -4.58134 27.0951 -5.39522 27.6274 -6.18284C28.1597 -7.02297 28.5589 -7.8631 28.8251 -8.70323C29.0913 -9.54337 29.2243 -10.3835 29.2243 -11.2236C29.2243 -13.0089 28.4259 -14.4791 26.8289 -15.6343C25.2852 -16.842 23.3422 -17.4459 21 -17.4459C18.4981 -17.4459 16.1559 -16.9208 13.9734 -15.8706C11.7909 -14.873 9.42205 -13.1402 6.86692 -10.6723L0 -18.9423C3.19392 -21.9353 6.57414 -24.1932 10.1407 -25.7159C13.7605 -27.2386 17.5133 -28 21.3992 -28C25.3916 -28 28.8517 -27.3174 31.7795 -25.9522C34.7605 -24.6395 37.076 -22.7754 38.7262 -20.3601C40.3764 -17.9972 41.2015 -15.2143 41.2015 -12.0112C41.2015 -10.2785 40.9354 -8.59822 40.403 -6.97047C39.924 -5.39522 39.1521 -3.84623 38.0874 -2.32349C37.0228 -0.800749 35.6388 0.774498 33.9354 2.40225L17.8061 17.7609L42 17.6821V28H1.8365Z" fill="#FE5C83"/>
</g>
<defs>
<clipPath id="clip0_359_15">
<rect width="42" height="28" fill="white"/>
</clipPath>
</defs>
</svg>
