<svg width="42" height="28" viewBox="0 0 42 28" fill="none" xmlns="http://www.w3.org/2000/svg">
<g clip-path="url(#clip0_359_16)">
<path d="M1.8365 56V47.3361L25.4715 24.2588C26.3764 23.4187 27.0951 22.6048 27.6274 21.8172C28.1597 20.977 28.5589 20.1369 28.8251 19.2968C29.0913 18.4566 29.2243 17.6165 29.2243 16.7764C29.2243 14.9911 28.4259 13.5209 26.8289 12.3657C25.2852 11.158 23.3422 10.5541 21 10.5541C18.4981 10.5541 16.1559 11.0792 13.9734 12.1294C11.7909 13.127 9.42205 14.8598 6.86692 17.3277L0 9.05767C3.19392 6.0647 6.57414 3.80684 10.1407 2.28411C13.7605 0.761369 17.5133 0 21.3992 0C25.3916 0 28.8517 0.682606 31.7795 2.04782C34.7605 3.36052 37.076 5.22457 38.7262 7.63994C40.3764 10.0028 41.2015 12.7857 41.2015 15.9888C41.2015 17.7215 40.9354 19.4018 40.403 21.0295C39.924 22.6048 39.1521 24.1538 38.0874 25.6765C37.0228 27.1993 35.6388 28.7745 33.9354 30.4023L17.8061 45.7609L42 45.6821V56H1.8365Z" fill="#FE5C83"/>
</g>
<defs>
<clipPath id="clip0_359_16">
<rect width="42" height="28" fill="white"/>
</clipPath>
</defs>
</svg>
