<svg width="45" height="28" viewBox="0 0 45 28" fill="none" xmlns="http://www.w3.org/2000/svg">
<g clip-path="url(#clip0_359_10)">
<path d="M22.3381 28C17.8058 28 13.5701 27.2244 9.6313 25.6731C5.7464 24.1219 2.53597 21.976 0 19.2355L8.41727 11.7895C10.5216 13.9612 12.545 15.4608 14.4874 16.2881C16.4838 17.1154 19.0468 17.5291 22.1763 17.5291C24.2266 17.5291 26.0072 17.2705 27.518 16.7535C29.0827 16.1847 30.2698 15.409 31.0791 14.4266C31.9424 13.3924 32.3741 12.2031 32.3741 10.8587C32.3741 9.66944 32.0504 8.66112 31.4029 7.83379C30.8094 7.00646 29.946 6.36011 28.813 5.89473C27.7338 5.42936 26.4388 5.19668 24.9281 5.19668H17.6439V-4.65374H23.6331C25.9532 -4.65374 27.7608 -5.17082 29.0558 -6.20499C30.3507 -7.29086 30.9982 -8.7904 30.9982 -10.7036C30.9982 -11.9963 30.5935 -13.1339 29.7842 -14.1163C29.0288 -15.1505 27.9766 -15.952 26.6277 -16.5208C25.3327 -17.0896 23.8219 -17.374 22.0953 -17.374C19.3435 -17.374 16.9964 -16.9086 15.054 -15.9778C13.1655 -15.0988 11.1151 -13.4958 8.90288 -11.169L0.404676 -18.5374C3.10252 -21.4848 6.39389 -23.7858 10.2788 -25.4404C14.2176 -27.1468 18.3183 -28 22.5809 -28C26.7356 -28 30.3777 -27.3278 33.5072 -25.9834C36.6367 -24.6907 39.0917 -22.855 40.8723 -20.4765C42.6529 -18.1496 43.5432 -15.4349 43.5432 -12.3324C43.5432 -9.38504 42.545 -6.79963 40.5486 -4.57618C38.5522 -2.35272 35.9622 -0.801479 32.7788 0.0775617C36.5018 0.749768 39.4694 2.14589 41.6817 4.26593C43.8939 6.33425 45 8.86796 45 11.867C45 14.9695 44.0288 17.7359 42.0863 20.1662C40.1439 22.5965 37.473 24.5097 34.0737 25.9058C30.6745 27.3019 26.7626 28 22.3381 28Z" fill="#FE5C83"/>
</g>
<defs>
<clipPath id="clip0_359_10">
<rect width="45" height="28" fill="white"/>
</clipPath>
</defs>
</svg>
