<svg width="45" height="28" viewBox="0 0 45 28" fill="none" xmlns="http://www.w3.org/2000/svg">
<g clip-path="url(#clip0_359_9)">
<path d="M22.3381 56C17.8058 56 13.5701 55.2244 9.6313 53.6731C5.7464 52.1219 2.53597 49.976 0 47.2355L8.41727 39.7895C10.5216 41.9612 12.545 43.4608 14.4874 44.2881C16.4838 45.1154 19.0468 45.5291 22.1763 45.5291C24.2266 45.5291 26.0072 45.2705 27.518 44.7535C29.0827 44.1847 30.2698 43.409 31.0791 42.4266C31.9424 41.3924 32.3741 40.2031 32.3741 38.8587C32.3741 37.6694 32.0504 36.6611 31.4029 35.8338C30.8094 35.0065 29.946 34.3601 28.813 33.8947C27.7338 33.4294 26.4388 33.1967 24.9281 33.1967H17.6439V23.3463H23.6331C25.9532 23.3463 27.7608 22.8292 29.0558 21.795C30.3507 20.7091 30.9982 19.2096 30.9982 17.2964C30.9982 16.0037 30.5935 14.8661 29.7842 13.8837C29.0288 12.8495 27.9766 12.048 26.6277 11.4792C25.3327 10.9104 23.8219 10.626 22.0953 10.626C19.3435 10.626 16.9964 11.0914 15.054 12.0222C13.1655 12.9012 11.1151 14.5042 8.90288 16.831L0.404676 9.4626C3.10252 6.51523 6.39389 4.21422 10.2788 2.55956C14.2176 0.853185 18.3183 0 22.5809 0C26.7356 0 30.3777 0.672206 33.5072 2.01662C36.6367 3.30932 39.0917 5.14497 40.8723 7.52355C42.6529 9.85042 43.5432 12.5651 43.5432 15.6676C43.5432 18.615 42.545 21.2004 40.5486 23.4238C38.5522 25.6473 35.9622 27.1985 32.7788 28.0776C36.5018 28.7498 39.4694 30.1459 41.6817 32.2659C43.8939 34.3343 45 36.868 45 39.867C45 42.9695 44.0288 45.7359 42.0863 48.1662C40.1439 50.5965 37.473 52.5097 34.0737 53.9058C30.6745 55.3019 26.7626 56 22.3381 56Z" fill="#FE5C83"/>
</g>
<defs>
<clipPath id="clip0_359_9">
<rect width="45" height="28" fill="white"/>
</clipPath>
</defs>
</svg>
