<svg width="44" height="28" viewBox="0 0 44 28" fill="none" xmlns="http://www.w3.org/2000/svg">
<g clip-path="url(#clip0_359_4)">
<path d="M20.7059 28C12.7794 28 5.87745 25.5321 0 20.5963L7.44118 12.1688C9.81373 14.0591 12.1054 15.4243 14.3162 16.2644C16.527 17.1045 18.8725 17.5246 21.3529 17.5246C23.348 17.5246 25.0735 17.2096 26.5294 16.5795C27.9853 15.8969 29.1176 14.9517 29.9265 13.744C30.7892 12.5363 31.2206 11.1449 31.2206 9.56962C31.2206 7.25926 30.223 5.34271 28.2279 3.81997C26.2868 2.29723 23.8064 1.53586 20.7868 1.53586C19.223 1.53586 17.6593 1.7459 16.0956 2.16596C14.5319 2.58603 12.9412 3.24238 11.3235 4.13502L2.58824 1.61463L3.96324 -28H41.0074V-17.6821H14.3971L13.8309 -5.31646C15.5564 -6.15659 17.3358 -6.78669 19.1691 -7.20675C21.0025 -7.62682 22.9167 -7.83685 24.9118 -7.83685C28.7402 -7.83685 32.0833 -7.12799 34.9412 -5.71027C37.799 -4.34506 40.0098 -2.40225 41.5735 0.118142C43.1912 2.63854 44 5.579 44 8.93952C44 12.7201 43.0294 16.0544 41.0882 18.9423C39.1471 21.7778 36.424 24.0094 32.9191 25.6371C29.4142 27.2124 25.3431 28 20.7059 28Z" fill="#FE5C83"/>
</g>
<defs>
<clipPath id="clip0_359_4">
<rect width="44" height="28" fill="white"/>
</clipPath>
</defs>
</svg>
