<svg width="44" height="28" viewBox="0 0 44 28" fill="none" xmlns="http://www.w3.org/2000/svg">
<g clip-path="url(#clip0_359_5)">
<path d="M20.7059 56C12.7794 56 5.87745 53.5321 0 48.5963L7.44118 40.1688C9.81373 42.0591 12.1054 43.4243 14.3162 44.2644C16.527 45.1045 18.8725 45.5246 21.3529 45.5246C23.348 45.5246 25.0735 45.2096 26.5294 44.5795C27.9853 43.8969 29.1176 42.9517 29.9265 41.744C30.7892 40.5363 31.2206 39.1449 31.2206 37.5696C31.2206 35.2593 30.223 33.3427 28.2279 31.82C26.2868 30.2972 23.8064 29.5359 20.7868 29.5359C19.223 29.5359 17.6593 29.7459 16.0956 30.166C14.5319 30.586 12.9412 31.2424 11.3235 32.135L2.58824 29.6146L3.96324 0H41.0074V10.3179H14.3971L13.8309 22.6835C15.5564 21.8434 17.3358 21.2133 19.1691 20.7932C21.0025 20.3732 22.9167 20.1631 24.9118 20.1631C28.7402 20.1631 32.0833 20.872 34.9412 22.2897C37.799 23.6549 40.0098 25.5977 41.5735 28.1181C43.1912 30.6385 44 33.579 44 36.9395C44 40.7201 43.0294 44.0544 41.0882 46.9423C39.1471 49.7778 36.424 52.0094 32.9191 53.6371C29.4142 55.2124 25.3431 56 20.7059 56Z" fill="#FE5C83"/>
</g>
<defs>
<clipPath id="clip0_359_5">
<rect width="44" height="28" fill="white"/>
</clipPath>
</defs>
</svg>
