<svg width="46" height="29" viewBox="0 0 46 29" fill="none" xmlns="http://www.w3.org/2000/svg">
<g clip-path="url(#clip0_356_9)">
<path d="M24.64 28.76C19.7333 28.76 15.4133 27.5867 11.68 25.24C8 22.8933 5.12 19.64 3.04 15.48C1.01333 11.2667 0 6.36 0 0.76C0 -5.21333 1.12 -10.4133 3.36 -14.84C5.65333 -19.32 8.82667 -22.7867 12.88 -25.24C16.9867 -27.7467 21.76 -29 27.2 -29C30.3467 -29 33.4667 -28.44 36.56 -27.32C39.7067 -26.2533 42.2667 -24.7867 44.24 -22.92L37.12 -14.12C35.5733 -15.4533 33.92 -16.4133 32.16 -17C30.4533 -17.64 28.48 -17.96 26.24 -17.96C23.2 -17.96 20.64 -17.2133 18.56 -15.72C16.48 -14.2267 14.9067 -12.0667 13.84 -9.24C12.7733 -6.41333 12.24 -2.94667 12.24 1.16C14 -1.34667 16.1333 -3.29333 18.64 -4.68C21.1467 -6.06667 23.7867 -6.76 26.56 -6.76C30.24 -6.76 33.4933 -6.04 36.32 -4.6C39.1467 -3.16 41.36 -1.16 42.96 1.4C44.56 3.96 45.36 6.89333 45.36 10.2C45.36 13.72 44.4533 16.8933 42.64 19.72C40.88 22.4933 38.4267 24.7067 35.28 26.36C32.1867 27.96 28.64 28.76 24.64 28.76ZM24.48 2.84C22.1867 2.84 20.0533 3.26667 18.08 4.12C16.16 4.97333 14.4533 6.17333 12.96 7.72C13.4933 9.85333 14.2667 11.72 15.28 13.32C16.3467 14.8667 17.6267 16.0667 19.12 16.92C20.6133 17.7733 22.24 18.2 24 18.2C25.76 18.2 27.3333 17.88 28.72 17.24C30.1067 16.5467 31.2 15.6133 32 14.44C32.8533 13.2667 33.28 11.9333 33.28 10.44C33.28 8.94667 32.9067 7.64 32.16 6.52C31.4133 5.34667 30.3733 4.44 29.04 3.8C27.76 3.16 26.24 2.84 24.48 2.84Z" fill="#FE5C83"/>
</g>
<defs>
<clipPath id="clip0_356_9">
<rect width="46" height="29" fill="white"/>
</clipPath>
</defs>
</svg>
