<svg width="46" height="29" viewBox="0 0 46 29" fill="none" xmlns="http://www.w3.org/2000/svg">
<g clip-path="url(#clip0_356_6)">
<path d="M24.64 57.76C19.7333 57.76 15.4133 56.5867 11.68 54.24C8 51.8933 5.12 48.64 3.04 44.48C1.01333 40.2667 0 35.36 0 29.76C0 23.7867 1.12 18.5867 3.36 14.16C5.65333 9.68 8.82667 6.21333 12.88 3.76C16.9867 1.25333 21.76 0 27.2 0C30.3467 0 33.4667 0.559999 36.56 1.68C39.7067 2.74667 42.2667 4.21333 44.24 6.08L37.12 14.88C35.5733 13.5467 33.92 12.5867 32.16 12C30.4533 11.36 28.48 11.04 26.24 11.04C23.2 11.04 20.64 11.7867 18.56 13.28C16.48 14.7733 14.9067 16.9333 13.84 19.76C12.7733 22.5867 12.24 26.0533 12.24 30.16C14 27.6533 16.1333 25.7067 18.64 24.32C21.1467 22.9333 23.7867 22.24 26.56 22.24C30.24 22.24 33.4933 22.96 36.32 24.4C39.1467 25.84 41.36 27.84 42.96 30.4C44.56 32.96 45.36 35.8933 45.36 39.2C45.36 42.72 44.4533 45.8933 42.64 48.72C40.88 51.4933 38.4267 53.7067 35.28 55.36C32.1867 56.96 28.64 57.76 24.64 57.76ZM24.48 31.84C22.1867 31.84 20.0533 32.2667 18.08 33.12C16.16 33.9733 14.4533 35.1733 12.96 36.72C13.4933 38.8533 14.2667 40.72 15.28 42.32C16.3467 43.8667 17.6267 45.0667 19.12 45.92C20.6133 46.7733 22.24 47.2 24 47.2C25.76 47.2 27.3333 46.88 28.72 46.24C30.1067 45.5467 31.2 44.6133 32 43.44C32.8533 42.2667 33.28 40.9333 33.28 39.44C33.28 37.9467 32.9067 36.64 32.16 35.52C31.4133 34.3467 30.3733 33.44 29.04 32.8C27.76 32.16 26.24 31.84 24.48 31.84Z" fill="#FE5C83"/>
</g>
<defs>
<clipPath id="clip0_356_6">
<rect width="46" height="29" fill="white"/>
</clipPath>
</defs>
</svg>
