<svg width="44" height="29" viewBox="0 0 44 29" fill="none" xmlns="http://www.w3.org/2000/svg">
<g clip-path="url(#clip0_356_15)">
<path d="M21.84 28.76C17.52 28.76 13.7067 28.0667 10.4 26.68C7.14667 25.24 4.58667 23.2667 2.72 20.76C0.906667 18.2533 0 15.3467 0 12.04C0 10.0667 0.426667 8.22667 1.28 6.52C2.18667 4.81333 3.44 3.32 5.04 2.04C6.64 0.760002 8.48 -0.199999 10.56 -0.84C7.89333 -1.90667 5.73333 -3.50666 4.08 -5.64C2.42667 -7.77333 1.6 -10.1467 1.6 -12.76C1.6 -15.8533 2.48 -18.6267 4.24 -21.08C6.05333 -23.5333 8.48 -25.4533 11.52 -26.84C14.56 -28.28 18 -29 21.84 -29C25.68 -29 29.12 -28.28 32.16 -26.84C35.2533 -25.4533 37.68 -23.5333 39.44 -21.08C41.2 -18.6267 42.08 -15.8533 42.08 -12.76C42.08 -10.1467 41.2533 -7.77333 39.6 -5.64C37.9467 -3.50666 35.7867 -1.90667 33.12 -0.84C36.2667 0.173334 38.8 1.82667 40.72 4.12C42.6933 6.41333 43.68 9.05333 43.68 12.04C43.68 15.3467 42.7467 18.2533 40.88 20.76C39.0667 23.2667 36.5067 25.24 33.2 26.68C29.9467 28.0667 26.16 28.76 21.84 28.76ZM21.84 -5C23.3867 -5 24.7733 -5.29333 26 -5.88C27.2267 -6.46667 28.1867 -7.26667 28.88 -8.28C29.5733 -9.34667 29.92 -10.5467 29.92 -11.88C29.92 -13.2133 29.5733 -14.3867 28.88 -15.4C28.1867 -16.4667 27.2267 -17.2933 26 -17.88C24.7733 -18.4667 23.3867 -18.76 21.84 -18.76C20.2933 -18.76 18.9067 -18.4667 17.68 -17.88C16.4533 -17.2933 15.4933 -16.4667 14.8 -15.4C14.1067 -14.3867 13.76 -13.2133 13.76 -11.88C13.76 -10.5467 14.1067 -9.34667 14.8 -8.28C15.4933 -7.26667 16.4533 -6.46667 17.68 -5.88C18.9067 -5.29333 20.2933 -5 21.84 -5ZM21.84 18.44C23.7067 18.44 25.3333 18.1467 26.72 17.56C28.1067 16.92 29.2 16.04 30 14.92C30.8 13.8 31.2 12.5467 31.2 11.16C31.2 9.72 30.8 8.46667 30 7.4C29.2 6.28 28.1067 5.42667 26.72 4.84C25.3333 4.2 23.7067 3.88 21.84 3.88C20.0267 3.88 18.4 4.2 16.96 4.84C15.5733 5.42667 14.48 6.28 13.68 7.4C12.88 8.46667 12.48 9.72 12.48 11.16C12.48 12.5467 12.88 13.8 13.68 14.92C14.48 16.04 15.5733 16.92 16.96 17.56C18.4 18.1467 20.0267 18.44 21.84 18.44Z" fill="#FE5C83"/>
</g>
<defs>
<clipPath id="clip0_356_15">
<rect width="44" height="29" fill="white"/>
</clipPath>
</defs>
</svg>
