<svg width="44" height="29" viewBox="0 0 44 29" fill="none" xmlns="http://www.w3.org/2000/svg">
<g clip-path="url(#clip0_356_14)">
<path d="M21.84 57.76C17.52 57.76 13.7067 57.0667 10.4 55.68C7.14667 54.24 4.58667 52.2667 2.72 49.76C0.906667 47.2533 0 44.3467 0 41.04C0 39.0667 0.426667 37.2267 1.28 35.52C2.18667 33.8133 3.44 32.32 5.04 31.04C6.64 29.76 8.48 28.8 10.56 28.16C7.89333 27.0933 5.73333 25.4933 4.08 23.36C2.42667 21.2267 1.6 18.8533 1.6 16.24C1.6 13.1467 2.48 10.3733 4.24 7.92C6.05333 5.46666 8.48 3.54667 11.52 2.16C14.56 0.72 18 0 21.84 0C25.68 0 29.12 0.72 32.16 2.16C35.2533 3.54667 37.68 5.46666 39.44 7.92C41.2 10.3733 42.08 13.1467 42.08 16.24C42.08 18.8533 41.2533 21.2267 39.6 23.36C37.9467 25.4933 35.7867 27.0933 33.12 28.16C36.2667 29.1733 38.8 30.8267 40.72 33.12C42.6933 35.4133 43.68 38.0533 43.68 41.04C43.68 44.3467 42.7467 47.2533 40.88 49.76C39.0667 52.2667 36.5067 54.24 33.2 55.68C29.9467 57.0667 26.16 57.76 21.84 57.76ZM21.84 24C23.3867 24 24.7733 23.7067 26 23.12C27.2267 22.5333 28.1867 21.7333 28.88 20.72C29.5733 19.6533 29.92 18.4533 29.92 17.12C29.92 15.7867 29.5733 14.6133 28.88 13.6C28.1867 12.5333 27.2267 11.7067 26 11.12C24.7733 10.5333 23.3867 10.24 21.84 10.24C20.2933 10.24 18.9067 10.5333 17.68 11.12C16.4533 11.7067 15.4933 12.5333 14.8 13.6C14.1067 14.6133 13.76 15.7867 13.76 17.12C13.76 18.4533 14.1067 19.6533 14.8 20.72C15.4933 21.7333 16.4533 22.5333 17.68 23.12C18.9067 23.7067 20.2933 24 21.84 24ZM21.84 47.44C23.7067 47.44 25.3333 47.1467 26.72 46.56C28.1067 45.92 29.2 45.04 30 43.92C30.8 42.8 31.2 41.5467 31.2 40.16C31.2 38.72 30.8 37.4667 30 36.4C29.2 35.28 28.1067 34.4267 26.72 33.84C25.3333 33.2 23.7067 32.88 21.84 32.88C20.0267 32.88 18.4 33.2 16.96 33.84C15.5733 34.4267 14.48 35.28 13.68 36.4C12.88 37.4667 12.48 38.72 12.48 40.16C12.48 41.5467 12.88 42.8 13.68 43.92C14.48 45.04 15.5733 45.92 16.96 46.56C18.4 47.1467 20.0267 47.44 21.84 47.44Z" fill="#FE5C83"/>
</g>
<defs>
<clipPath id="clip0_356_14">
<rect width="44" height="29" fill="white"/>
</clipPath>
</defs>
</svg>
