<svg width="46" height="29" viewBox="0 0 46 29" fill="none" xmlns="http://www.w3.org/2000/svg">
<g clip-path="url(#clip0_356_18)">
<path d="M20.72 -29C25.6267 -29 29.92 -27.8267 33.6 -25.48C37.3333 -23.1333 40.2133 -19.8533 42.24 -15.64C44.32 -11.48 45.36 -6.6 45.36 -1C45.36 4.92 44.2133 10.12 41.92 14.6C39.68 19.08 36.5067 22.5733 32.4 25.08C28.3467 27.5333 23.6 28.76 18.16 28.76C15.0667 28.76 11.9467 28.2 8.8 27.08C5.65333 25.96 3.09333 24.4933 1.12 22.68L8.24 13.88C9.78667 15.2133 11.4133 16.2 13.12 16.84C14.88 17.4267 16.88 17.72 19.12 17.72C22.16 17.72 24.72 16.9733 26.8 15.48C28.88 13.9867 30.4533 11.8267 31.52 9C32.5867 6.12 33.12 2.65333 33.12 -1.4C31.36 1.10667 29.2267 3.05334 26.72 4.44C24.2667 5.82667 21.6267 6.52 18.8 6.52C15.12 6.52 11.8667 5.8 9.04 4.36C6.21333 2.92 4 0.920001 2.4 -1.64C0.8 -4.2 0 -7.13333 0 -10.44C0 -14.0133 0.88 -17.1867 2.64 -19.96C4.45333 -22.7333 6.93333 -24.92 10.08 -26.52C13.2267 -28.1733 16.7733 -29 20.72 -29ZM20.88 -3.08C23.1733 -3.08 25.28 -3.50667 27.2 -4.36C29.1733 -5.21333 30.9067 -6.41333 32.4 -7.96C31.8667 -10.0933 31.0667 -11.9333 30 -13.48C28.9867 -15.08 27.7333 -16.3067 26.24 -17.16C24.8 -18.0133 23.1733 -18.44 21.36 -18.44C19.6 -18.44 18 -18.0933 16.56 -17.4C15.1733 -16.76 14.08 -15.8533 13.28 -14.68C12.48 -13.5067 12.08 -12.1733 12.08 -10.68C12.08 -9.18667 12.4533 -7.85333 13.2 -6.68C13.9467 -5.56 14.9867 -4.68 16.32 -4.04C17.6533 -3.4 19.1733 -3.08 20.88 -3.08Z" fill="#FE5C83"/>
</g>
<defs>
<clipPath id="clip0_356_18">
<rect width="46" height="29" fill="white"/>
</clipPath>
</defs>
</svg>
