<svg width="46" height="29" viewBox="0 0 46 29" fill="none" xmlns="http://www.w3.org/2000/svg">
<g clip-path="url(#clip0_356_17)">
<path d="M20.72 0C25.6267 0 29.92 1.17333 33.6 3.52C37.3333 5.86667 40.2133 9.14667 42.24 13.36C44.32 17.52 45.36 22.4 45.36 28C45.36 33.92 44.2133 39.12 41.92 43.6C39.68 48.08 36.5067 51.5733 32.4 54.08C28.3467 56.5333 23.6 57.76 18.16 57.76C15.0667 57.76 11.9467 57.2 8.8 56.08C5.65333 54.96 3.09333 53.4933 1.12 51.68L8.24 42.88C9.78667 44.2133 11.4133 45.2 13.12 45.84C14.88 46.4267 16.88 46.72 19.12 46.72C22.16 46.72 24.72 45.9733 26.8 44.48C28.88 42.9867 30.4533 40.8267 31.52 38C32.5867 35.12 33.12 31.6533 33.12 27.6C31.36 30.1067 29.2267 32.0533 26.72 33.44C24.2667 34.8267 21.6267 35.52 18.8 35.52C15.12 35.52 11.8667 34.8 9.04 33.36C6.21333 31.92 4 29.92 2.4 27.36C0.8 24.8 0 21.8667 0 18.56C0 14.9867 0.88 11.8133 2.64 9.04C4.45333 6.26667 6.93333 4.08 10.08 2.48C13.2267 0.826667 16.7733 0 20.72 0ZM20.88 25.92C23.1733 25.92 25.28 25.4933 27.2 24.64C29.1733 23.7867 30.9067 22.5867 32.4 21.04C31.8667 18.9067 31.0667 17.0667 30 15.52C28.9867 13.92 27.7333 12.6933 26.24 11.84C24.8 10.9867 23.1733 10.56 21.36 10.56C19.6 10.56 18 10.9067 16.56 11.6C15.1733 12.24 14.08 13.1467 13.28 14.32C12.48 15.4933 12.08 16.8267 12.08 18.32C12.08 19.8133 12.4533 21.1467 13.2 22.32C13.9467 23.44 14.9867 24.32 16.32 24.96C17.6533 25.6 19.1733 25.92 20.88 25.92Z" fill="#FE5C83"/>
</g>
<defs>
<clipPath id="clip0_356_17">
<rect width="46" height="29" fill="white"/>
</clipPath>
</defs>
</svg>
